<?xml version="1.0" encoding="UTF-8" standalone="no"?>
<svg
   fill="none"
   height="58.740002"
   viewBox="0 0 201.993 58.740002"
   width="201.993"
   version="1.1"
   id="svg21"
   xmlns="http://www.w3.org/2000/svg"
   xmlns:svg="http://www.w3.org/2000/svg">
  <defs
     id="defs21" />
  <title
     id="title1">Rocketseat + Sirius</title>
  <g
     id="g23"
     transform="translate(0,-4.499999)">
    <g
       id="g22">
      <path
         d="m 49.1272,15.8592 c 0.9852,-0.8369 1.4839,-2.1068 1.4839,-3.772 0,-3.0662 -1.7583,-4.8245 -4.8246,-4.8245 H 35.7803 v 14.465 h 2.4123 V 9.67497 h 7.5939 c 1.7359,0 2.4123,0.67643 2.4123,2.41223 0,1.7359 -0.6764,2.4123 -2.4123,2.4123 h -4.9608 l 6.8658,7.2282 h 3.1077 l -4.5278,-4.8314 c 1.1716,-0.0742 2.131,-0.4228 2.8558,-1.0388 z"
         fill="#ffffff"
         id="path1" />
      <path
         d="m 60.3617,7.10059 h -0.0051 c -3.1318,0 -5.3647,0.95248 -6.6398,2.82639 -1.0491,1.54432 -1.1699,3.34922 -1.1699,4.57262 0,1.2234 0.1208,3.0283 1.1699,4.5726 1.2734,1.8739 3.508,2.8247 6.6398,2.8264 0.0017,0 0.0034,0 0.0051,0 3.1336,0 5.3699,-0.949 6.6467,-2.8212 1.0561,-1.5478 1.1786,-3.3527 1.1786,-4.5778 0,-1.2251 -0.1225,-3.03 -1.1786,-4.5778 C 65.7298,8.04962 63.4936,7.10059 60.36,7.10059 Z M 65.0172,17.716 c -0.8006,1.1733 -2.3674,1.7686 -4.6555,1.7686 h -0.0051 c -2.2846,0 -3.8479,-0.597 -4.6451,-1.7704 -0.6678,-0.9818 -0.7541,-2.2345 -0.7541,-3.2163 0,-0.9818 0.0863,-2.2346 0.7541,-3.2164 0.7972,-1.1733 2.3605,-1.76864 4.6451,-1.77036 H 60.36 c 2.2881,0 3.8548,0.59526 4.6555,1.76866 0.6712,0.9853 0.7575,2.2363 0.7575,3.2181 0,0.9818 -0.0863,2.2328 -0.7575,3.2181 z"
         fill="#ffffff"
         id="path2" />
      <path
         d="m 149.832,14.166 c -0.814,-0.5625 -1.922,-0.8472 -3.296,-0.8472 h -4.641 c -2.333,0 -2.528,-0.9473 -2.528,-1.8343 0,-0.8869 0.195,-1.83418 2.528,-1.83418 h 8.846 V 7.28809 h -8.846 c -1.372,0 -2.482,0.2847 -3.296,0.84722 -0.728,0.50385 -1.596,1.49258 -1.596,3.34919 0,1.8567 0.868,2.8454 1.596,3.3493 0.814,0.5625 1.922,0.8472 3.296,0.8472 h 4.641 c 0.872,0 1.546,0.1484 1.952,0.4279 0.248,0.1709 0.576,0.5039 0.576,1.4063 0,0.9025 -0.195,1.8342 -2.528,1.8342 h -8.938 v 2.3623 h 8.938 c 1.372,0 2.482,-0.2847 3.296,-0.8472 0.728,-0.5039 1.596,-1.4926 1.596,-3.3493 0,-1.8566 -0.868,-2.8454 -1.596,-3.3492 z"
         fill="#ffffff"
         id="path3" />
      <path
         d="m 107.227,15.6969 h 8.764 v -2.4123 h -8.764 V 9.66618 h 10.855 V 7.25391 H 104.814 V 21.7275 h 13.289 v -2.4122 h -10.876 z"
         fill="#ffffff"
         id="path4" />
      <path
         d="m 156.88,15.6969 h 8.766 V 13.2846 H 156.88 V 9.66618 h 10.857 V 7.25391 H 154.468 V 21.7275 h 13.288 V 19.3153 H 156.88 Z"
         fill="#ffffff"
         id="path5" />
      <path
         d="m 120.253,9.64055 h 6.031 V 21.7364 h 2.414 V 9.64055 h 6.03 V 7.27832 h -14.475 z"
         fill="#ffffff"
         id="path6" />
      <path
         d="m 201.993,7.27832 h -14.475 v 2.36223 h 6.032 V 21.7364 h 2.412 V 9.64055 h 6.031 z"
         fill="#ffffff"
         id="path7" />
      <path
         d="m 102.299,7.28711 h -3.0386 l -6.11,7.21269 6.1169,7.2282 h 3.0577 l -6.0238,-7.23 z"
         fill="#ffffff"
         id="path8" />
      <path
         d="m 90.4305,7.25391 h -2.533 V 21.7275 h 2.533 z"
         fill="#ffffff"
         id="path9" />
      <path
         d="m 180.804,7.26758 h -5.79 c -2.389,0 -4.332,1.94293 -4.332,4.33272 v 10.1323 h 2.393 v -4.9747 h 9.684 v 4.9747 h 2.362 V 15.745 c 0.008,-0.0604 0.015,-0.1207 0.015,-0.1829 v -3.9618 c 0,-2.38979 -1.943,-4.33272 -4.332,-4.33272 z m 1.939,7.09702 h -9.668 v -2.7643 c 0,-1.0698 0.87,-1.93943 1.939,-1.93943 h 5.79 c 1.069,0 1.939,0.86963 1.939,1.93943 z"
         fill="#ffffff"
         id="path10" />
      <path
         d="m 70.6152,11.6043 v 5.7891 c 0,2.3898 1.943,4.3327 4.3328,4.3327 H 85.0802 V 19.3329 H 74.948 c -1.0698,0 -1.9395,-0.8697 -1.9395,-1.9395 v -5.7891 c 0,-1.0699 0.8697,-1.93952 1.9395,-1.93952 H 85.0802 V 7.27148 H 74.948 c -2.3898,0 -4.3328,1.94293 -4.3328,4.33282 z"
         fill="#ffffff"
         id="path11" />
      <path
         d="M 15.383,20.2251 C 9.76988,25.0203 5.78394,25.3585 3.74265,23.3155 1.86183,21.4347 3.4217,16.7171 7.22301,12.0582 L 0,4.83691 H 4.61576 L 11.7905,12.0116 C 7.2627,16.567 4.62266,21.4174 5.98755,22.7823 7.11776,23.9142 10.5964,22.3457 14.3494,19.1915 Z"
         fill="#ffffff"
         id="path12" />
      <path
         d="M 28.5507,24.1626 H 23.935 L 16.7603,16.9879 C 21.288,12.4342 23.9281,7.58209 22.5649,6.21893 21.4347,5.08699 17.9526,6.65721 14.1996,9.81146 L 13.166,8.77788 C 18.7808,3.98094 22.7685,3.641 24.8098,5.68401 26.6906,7.56483 25.1325,12.2824 21.3294,16.9413 l 7.2231,7.2213 z"
         fill="#ffffff"
         id="path13" />
    </g>
    <path
       d="m 99.709735,38.749811 v -3.88 h -3.879999 v -2.26 h 3.879999 v -3.86 h 2.259995 v 3.86 h 3.86 v 2.26 h -3.86 v 3.88 z"
       fill="#7c7c8a"
       id="path14" />
    <g
       id="g21"
       transform="translate(-6.6633961,-3.2083019)">
      <path
         d="m 75.588849,55.671102 -1.865,-0.339 c -1.172,-0.2161 -1.974,-0.4163 -2.421,-0.617 -0.447,-0.2002 -0.663,-0.5392 -0.663,-1.0175 0,-0.5396 0.247,-0.956 0.725,-1.2489 0.478,-0.29283 1.094,-0.4316 1.835,-0.4316 1.773,0 2.806,0.7091 3.099,2.1429 h 4.209 c -0.201,-1.6647 -0.972,-2.99095 -2.313,-3.99303 -1.341,-1.00208 -2.991,-1.49527 -4.949,-1.49527 -1.958,0 -3.593,0.49319 -4.903,1.47987 -1.311,0.98682 -1.958,2.29713 -1.958,3.91633 0,2.5132 1.757,4.0856 5.273,4.7176 l 2.744,0.509 c 0.401,0.0769 0.74,0.154 1.002,0.2313 0.262,0.0769 0.54,0.2619 0.817,0.5547 0.278,0.2934 0.417,0.6632 0.417,1.1102 -0.016,1.3109 -0.972,1.9581 -2.868,1.9581 -2.051,0 -3.176,-0.9402 -3.377,-2.8061 h -4.193 c 0,1.9274 0.694,3.4385 2.097,4.5329 1.403,1.0947 3.029,1.5639 5.234,1.5639 l 0.224,-0.0063 c 2.143,0 3.87,-0.5091 5.165,-1.5418 1.295,-1.0333 1.942,-2.4052 1.942,-4.1324 0,-2.7135 -1.757,-4.4094 -5.273,-5.0879 z"
         fill="#ffffff"
         id="path15" />
      <path
         d="m 83.419849,66.078202 h 4.193 v -17.11382 h -4.193 z"
         fill="#ffffff"
         id="path16" />
      <path
         d="m 95.883849,49.257342 c -0.339,0.18484 -0.709,0.53969 -1.11,1.04829 h -0.354 l -0.632,-1.32584 h -3.562 l 0.031,17.09841 h 4.194 v -11.2705 c 0,-0.6166 0.185,-1.0948 0.539,-1.4492 0.355,-0.3548 0.833,-0.5243 1.434,-0.5243 h 3.423 v -3.85441 h -2.667 c -0.525,0 -0.956,0.09228 -1.296,0.27755 z"
         fill="#ffffff"
         id="path17" />
      <path
         d="m 102.43785,66.078202 h 4.194 v -17.11382 h -4.194 z"
         fill="#ffffff"
         id="path18" />
      <path
         d="m 120.49285,57.521002 c 0,2.0354 -0.309,3.3919 -0.91,4.0704 -0.586,0.663 -1.48,0.9868 -2.683,0.9868 -1.202,0 -2.081,-0.3544 -2.652,-1.0791 -0.524,-0.6785 -0.786,-2.128 -0.786,-4.3325 v -8.20221 h -4.24 v 9.25051 c 0,0.8633 0.016,1.5572 0.046,2.0814 0.031,0.5243 0.17,1.2182 0.417,2.0816 0.246,0.8633 0.601,1.5726 1.063,2.143 1.049,1.2796 2.668,1.9274 4.857,1.9274 v -0.0154 c 1.835,0 3.346,-0.5551 4.549,-1.6805 h 0.339 l 0.632,1.3256 h 3.577 v -17.11361 h -4.209 z"
         fill="#ffffff"
         id="path19" />
      <path
         d="m 134.30385,48.671562 c -1.957,0 -3.592,0.49319 -4.902,1.47987 -1.311,0.98682 -1.958,2.29727 -1.958,3.91637 0,2.5131 1.757,4.0857 5.272,4.7177 l 2.745,0.5089 c 0.401,0.0768 0.74,0.1541 1.002,0.2314 0.262,0.0769 0.54,0.2618 0.817,0.5547 0.278,0.2933 0.416,0.6631 0.416,1.1101 -0.015,1.3108 -0.971,1.9581 -2.867,1.9581 -2.051,0 -3.176,-0.9402 -3.377,-2.806 h -4.194 c 0,1.9272 0.694,3.4384 2.097,4.5327 1.403,1.0948 3.03,1.5641 5.235,1.5641 l 0.223,-0.0065 c 2.143,0 3.87,-0.5089 5.165,-1.5418 1.295,-1.0333 1.943,-2.4052 1.943,-4.1322 0,-2.7136 -1.758,-4.4095 -5.273,-5.088 l -1.865,-0.339 c -1.172,-0.2161 -1.974,-0.4163 -2.421,-0.617 -0.447,-0.2003 -0.663,-0.5393 -0.663,-1.0175 0,-0.5397 0.246,-0.956 0.725,-1.2488 0.477,-0.29297 1.094,-0.43174 1.834,-0.43174 0.526,0 0.986,0.06402 1.381,0.18922 -0.585,-1.04744 -0.926,-2.24906 -0.945,-3.52756 -0.129,-0.0045 -0.258,-0.0071 -0.39,-0.0071 z"
         fill="#ffffff"
         id="path20" />
      <path
         d="m 142.17485,43.513242 c -2.786,0 -5.052,2.26631 -5.052,5.05195 0,2.78579 2.266,5.05191 5.052,5.05191 2.785,0 5.052,-2.26612 5.052,-5.05191 0,-2.78564 -2.267,-5.05195 -5.052,-5.05195 z m 0,11.16946 c -3.374,0 -6.118,-2.74441 -6.118,-6.11751 0,-3.3731 2.744,-6.117337 6.118,-6.117337 3.373,0 6.117,2.744237 6.117,6.117337 0,3.3731 -2.744,6.11751 -6.117,6.11751 z"
         fill="#ffffff"
         id="path21" />
    </g>
  </g>
</svg>
